PathFileType	4	(X/Y/Z)	C:\Users\86182\Documents\cortex\Trimmed_M1_L1.trc
DataRate	CameraRate	NumFrames	NumMarkers	Units	OrigDataRate	OrigDataStartFrame	OrigNumFrames
100.00	100.00	      154	2	mm	100.00	801	      1001
Frame#	Time	gripper			box			
		X1	Y1	Z1	X2	Y2	Z2	

801	8.000	197.09558	193.52295	293.23764	199.31688	192.47125	158.06310	
802	8.010	197.09558	193.52295	293.23764	199.31328	192.46951	158.05962	
803	8.020	197.09558	193.52295	293.23764	199.33855	192.48163	158.08412	
804	8.030	197.09558	193.52295	293.23764	199.31860	192.47580	158.06372	
805	8.040	197.09909	193.52373	293.24670	199.33310	192.47902	158.07883	
806	8.050	197.09558	193.52295	293.23764	199.32767	192.47641	158.07358	
807	8.060	197.09767	193.52341	293.24307	199.32585	192.47554	158.07182	
808	8.070	197.09981	193.52390	293.24854	199.32947	192.47728	158.07532	
809	8.080	197.10759	193.52563	293.26859	199.32899	192.48169	158.07350	
810	8.090	197.10120	193.52419	293.25217	199.34174	192.48409	158.08693	
811	8.100	197.10190	193.52435	293.25397	199.34586	192.48515	158.09119	
812	8.110	197.09909	193.52373	293.24670	199.33575	192.48958	158.07878	
813	8.120	197.10262	193.52452	293.25580	199.32585	192.47554	158.07182	
814	8.130	197.10262	193.52452	293.25580	199.33488	192.47986	158.08060	
815	8.140	197.09981	193.52390	293.24854	199.32225	192.47383	158.06831	
816	8.150	197.10616	193.52531	293.26492	199.35133	192.49149	158.09546	
817	8.160	197.09981	193.52390	293.24854	199.32988	192.48029	158.07494	
818	8.170	197.09909	193.52373	293.24670	199.31508	192.47038	158.06137	
819	8.180	197.11186	193.52660	293.27960	199.35316	192.48865	158.09831	
820	8.190	197.10403	193.52484	293.25943	199.35316	192.48865	158.09831	
821	8.200	197.10262	193.52452	293.25580	199.32045	192.47296	158.06657	
822	8.210	197.11043	193.52628	293.27594	199.34494	192.48657	158.08975	
823	8.220	197.10262	193.52452	293.25580	199.33855	192.48163	158.08412	
824	8.230	197.09767	193.52341	293.24307	199.33855	192.48163	158.08412	
825	8.240	197.10190	193.52435	293.25397	199.32988	192.48029	158.07494	
826	8.250	197.10333	193.52469	293.25760	199.33310	192.47902	158.07883	
827	8.260	197.10120	193.52419	293.25217	199.32806	192.47940	158.07318	
828	8.270	197.10403	193.52484	293.25943	199.35316	192.48865	158.09831	
829	8.280	197.10120	193.52419	293.25217	199.32124	192.48260	158.06473	
830	8.290	197.09558	193.52295	293.23764	199.33943	192.48392	158.08446	
831	8.300	197.10190	193.52435	293.25397	199.35088	192.49219	158.09474	
832	8.310	197.10048	193.52403	293.25034	199.34769	192.48602	158.09297	
833	8.320	197.10687	193.52548	293.26675	199.34218	192.48338	158.08765	
834	8.330	197.10333	193.52469	293.25760	199.35316	192.48865	158.09831	
835	8.340	197.10475	193.52501	293.26126	199.33488	192.47986	158.08060	
836	8.350	197.10262	193.52452	293.25580	199.34952	192.48689	158.09474	
837	8.360	197.10826	193.52577	293.27042	199.34218	192.48338	158.08765	
838	8.370	197.10048	193.52403	293.25034	199.32045	192.47296	158.06657	
839	8.380	197.10262	193.52452	293.25580	199.33855	192.48163	158.08412	
840	8.390	197.09698	193.52327	293.24127	199.33855	192.48163	158.08412	
841	8.400	197.09558	193.52295	293.23764	199.32767	192.47641	158.07358	
842	8.410	197.09909	193.52373	293.24670	199.33128	192.47815	158.07707	
843	8.420	197.09909	193.52373	293.24670	199.33310	192.47902	158.07883	
844	8.430	197.09698	193.52327	293.24127	199.32225	192.47383	158.06831	
845	8.440	197.09558	193.52295	293.23764	199.32767	192.47641	158.07358	
846	8.450	197.09558	193.52295	293.23764	199.32404	192.47467	158.07007	
847	8.460	197.09698	193.52327	293.24127	199.33488	192.47986	158.08060	
848	8.470	197.09558	193.52295	293.23764	199.31906	192.47508	158.06444	
849	8.480	197.09558	193.52295	293.23764	199.32721	192.47711	158.07286	
850	8.490	197.09558	193.52295	293.23764	199.31464	192.47108	158.06065	
851	8.500	197.09558	193.52295	293.23764	199.33807	192.48605	158.08231	
852	8.510	197.09698	193.52327	293.24127	199.33128	192.47815	158.07707	
853	8.520	197.09558	193.52295	293.23764	199.32903	192.47798	158.07460	
854	8.530	197.09558	193.52295	293.23764	199.34952	192.48689	158.09474	
855	8.540	197.09698	193.52327	293.24127	199.33128	192.47815	158.07707	
856	8.550	197.09628	193.52310	293.23944	199.33128	192.47815	158.07707	
857	8.560	197.10333	193.52469	293.25760	199.33855	192.48163	158.08412	
858	8.570	197.09909	193.52373	293.24670	199.32988	192.48029	158.07494	
859	8.580	197.09558	193.52295	293.23764	199.32585	192.47554	158.07182	
860	8.590	197.10133	193.52290	293.25763	199.32494	192.47696	158.07040	
861	8.600	197.09558	193.52295	293.23764	199.34036	192.48250	158.08588	
862	8.610	197.10120	193.52419	293.25217	199.32225	192.47383	158.06831	
863	8.620	197.10616	193.52531	293.26492	199.33488	192.47986	158.08060	
864	8.630	197.09767	193.52341	293.24307	199.31107	192.46938	158.05716	
865	8.640	197.09558	193.52295	293.23764	199.31508	192.47038	158.06137	
866	8.650	197.09558	193.52295	293.23764	199.33673	192.48076	158.08237	
867	8.660	197.09558	193.52295	293.23764	199.33673	192.48076	158.08237	
868	8.670	197.10048	193.52403	293.25034	199.33310	192.47902	158.07883	
869	8.680	197.10475	193.52501	293.26126	199.33629	192.48148	158.08165	
870	8.690	197.10190	193.52435	293.25397	199.32585	192.47554	158.07182	
871	8.700	197.09558	193.52295	293.23764	199.35316	192.48865	158.09831	
872	8.710	197.09558	193.52295	293.23764	199.31151	192.46867	158.05788	
873	8.720	197.10333	193.52469	293.25760	199.32404	192.47467	158.07007	
874	8.730	197.09909	193.52373	293.24670	199.33310	192.47902	158.07883	
875	8.740	197.09033	193.51851	293.23676	199.33035	192.47957	158.07564	
876	8.750	197.10403	193.52484	293.25943	199.33310	192.47902	158.07883	
877	8.760	197.10048	193.52403	293.25034	199.33488	192.47986	158.08060	
878	8.770	197.09981	193.52390	293.24854	199.32538	192.47995	158.07001	
879	8.780	197.10759	193.52563	293.26859	199.34769	192.48602	158.09297	
880	8.790	197.09558	193.52295	293.23764	199.33673	192.48076	158.08237	
881	8.800	197.10333	193.52469	293.25760	199.35316	192.48865	158.09831	
882	8.810	197.09981	193.52390	293.24854	199.34218	192.48338	158.08765	
883	8.820	197.09558	193.52295	293.23764	199.31151	192.46867	158.05788	
884	8.830	197.11186	193.52660	293.27960	199.34404	192.48428	158.08942	
885	8.840	197.10403	193.52484	293.25943	199.35316	192.48865	158.09831	
886	8.850	197.10190	193.52435	293.25397	199.35088	192.49219	158.09474	
887	8.860	197.10048	193.52403	293.25034	199.34404	192.48428	158.08942	
888	8.870	197.10120	193.52419	293.25217	199.34126	192.48854	158.08513	
889	8.880	197.09558	193.52295	293.23764	199.33488	192.47986	158.08060	
890	8.890	197.09909	193.52373	293.24670	199.33855	192.48163	158.08412	
891	8.900	197.09981	193.52390	293.24854	199.31865	192.47209	158.06483	
892	8.910	197.09909	193.52373	293.24670	199.34404	192.48428	158.08942	
893	8.920	197.09767	193.52341	293.24307	199.32947	192.47728	158.07532	
894	8.930	197.09558	193.52295	293.23764	199.33310	192.47902	158.07883	
895	8.940	197.10120	193.52419	293.25217	199.33855	192.48163	158.08412	
896	8.950	197.09837	193.52357	293.24487	199.33488	192.47986	158.08060	
897	8.960	197.09981	193.52390	293.24854	199.34952	192.48689	158.09474	
898	8.970	197.09558	193.52295	293.23764	199.31860	192.47580	158.06372	
899	8.980	197.09767	193.52341	293.24307	199.32767	192.47641	158.07358	
900	8.990	197.09045	193.51686	293.24353	199.31151	192.46867	158.05788	
901	9.000	197.10403	193.52484	293.25943	199.34219	192.48712	158.08656	
902	9.010	197.10403	193.52484	293.25943	199.34769	192.48602	158.09297	
903	9.020	197.10120	193.52419	293.25217	199.34218	192.48338	158.08765	
904	9.030	197.10616	193.52531	293.26492	199.32404	192.47467	158.07007	
905	9.040	197.10544	193.52515	293.26309	199.33488	192.47986	158.08060	
906	9.050	197.09558	193.52295	293.23764	199.32585	192.47554	158.07182	
907	9.060	197.10475	193.52501	293.26126	199.32225	192.47383	158.06831	
908	9.070	197.09558	193.52295	293.23764	199.32404	192.47467	158.07007	
909	9.080	197.09558	193.52295	293.23764	199.32947	192.47728	158.07532	
910	9.090	197.10544	193.52515	293.26309	199.34404	192.48428	158.08942	
911	9.100	197.09558	193.52295	293.23764	199.33310	192.47902	158.07883	
912	9.110	197.10544	193.52515	293.26309	199.34952	192.48689	158.09474	
913	9.120	197.10190	193.52435	293.25397	199.32767	192.47641	158.07358	
914	9.130	197.09558	193.52295	293.23764	199.35316	192.48865	158.09831	
915	9.140	197.09628	193.52310	293.23944	199.32045	192.47296	158.06657	
916	9.150	197.10048	193.52403	293.25034	199.34952	192.48689	158.09474	
917	9.160	197.09558	193.52295	293.23764	199.33855	192.48163	158.08412	
918	9.170	197.09981	193.52390	293.24854	199.33673	192.48076	158.08237	
919	9.180	197.10120	193.52419	293.25217	199.33310	192.47902	158.07883	
920	9.190	197.09698	193.52327	293.24127	199.32404	192.47467	158.07007	
921	9.200	197.10120	193.52419	293.25217	199.33488	192.47986	158.08060	
922	9.210	197.09558	193.52295	293.23764	199.32585	192.47554	158.07182	
923	9.220	197.09558	193.52295	293.23764	199.32404	192.47467	158.07007	
924	9.230	197.10759	193.52563	293.26859	199.32947	192.47728	158.07532	
925	9.240	197.09698	193.52327	293.24127	199.31151	192.46867	158.05788	
926	9.250	197.10544	193.52515	293.26309	199.33128	192.47815	158.07707	
927	9.260	197.10048	193.52403	293.25034	199.33673	192.48076	158.08237	
928	9.270	197.09767	193.52341	293.24307	199.33310	192.47902	158.07883	
929	9.280	197.10403	193.52484	293.25943	199.33128	192.47815	158.07707	
930	9.290	197.09698	193.52327	293.24127	199.34036	192.48250	158.08588	
931	9.300	197.10475	193.52501	293.26126	199.31906	192.47508	158.06444	
932	9.310	197.10190	193.52435	293.25397	199.35316	192.48865	158.09831	
933	9.320	197.09558	193.52295	293.23764	199.31508	192.47038	158.06137	
934	9.330	197.09558	193.52295	293.23764	199.34126	192.48480	158.08623	
935	9.340	197.10262	193.52452	293.25580	199.33035	192.47957	158.07564	
936	9.350	197.09909	193.52373	293.24670	199.33310	192.47902	158.07883	
937	9.360	197.10759	193.52563	293.26859	199.34586	192.48515	158.09119	
938	9.370	197.09698	193.52327	293.24127	199.34769	192.48602	158.09297	
939	9.380	197.09558	193.52295	293.23764	199.35316	192.48865	158.09831	
940	9.390	197.10475	193.52501	293.26126	199.33855	192.48163	158.08412	
941	9.400	197.09558	193.52295	293.23764	199.32903	192.47798	158.07460	
942	9.410	197.09558	193.52295	293.23764	199.34036	192.48250	158.08588	
943	9.420	197.09837	193.52357	293.24487	199.32767	192.47641	158.07358	
944	9.430	197.09294	193.52071	293.23718	199.31328	192.46951	158.05962	
945	9.440	197.09558	193.52295	293.23764	199.32585	192.47554	158.07182	
946	9.450	197.10616	193.52531	293.26492	199.32045	192.47296	158.06657	
947	9.460	197.10048	193.52403	293.25034	199.33673	192.48076	158.08237	
948	9.470	197.10190	193.52435	293.25397	199.33673	192.48076	158.08237	
949	9.480	197.09981	193.52390	293.24854	199.33855	192.48163	158.08412	
950	9.490	197.10759	193.52563	293.26859	199.34218	192.48338	158.08765	
951	9.500	197.10120	193.52419	293.25217	199.33673	192.48076	158.08237	
952	9.510	197.09558	193.52295	293.23764	199.32947	192.47728	158.07532	
953	9.520	197.10120	193.52419	293.25217	199.33310	192.47902	158.07883	
954	9.530	197.09767	193.52341	293.24307	199.31151	192.46867	158.05788	
